<svg width="311" height="669" viewBox="0 0 311 669" fill="none" xmlns="http://www.w3.org/2000/svg">
<path fill-rule="evenodd" clip-rule="evenodd" d="M90.2817 4.00767C153.703 29.4385 98.2471 137.126 108.531 204.678C113.14 234.954 114.558 267.671 134.021 291.316C184.844 353.06 294.954 370.214 309.511 448.848C320.991 510.863 243.418 558.224 189.483 590.916C138.433 621.86 75.8713 616.214 17.007 626.145C-42.708 636.219 -124.815 699.172 -159.991 649.876C-208.34 582.118 -132.535 488.015 -140.668 405.174C-143.339 377.97 -172.879 362.726 -190.256 341.626C-226.523 297.587 -299.712 270.161 -298.832 213.117C-298.08 164.415 -233.346 137.744 -186.883 123.124C-145.185 110.004 -98.952 154.845 -58.7902 137.585C3.57196 110.783 27.2804 -21.2547 90.2817 4.00767Z" fill="#FFBE2E"/>
</svg>
