<svg width="392" height="601" viewBox="0 0 392 601" fill="none" xmlns="http://www.w3.org/2000/svg">
<path fill-rule="evenodd" clip-rule="evenodd" d="M534.137 39.5186C577.192 92.5785 476.371 159.714 452.512 223.743C441.818 252.441 427.149 281.719 432.659 311.845C447.047 390.51 534.923 459.039 509.409 534.829C489.286 594.602 398.472 598.269 335.447 600.611C275.792 602.828 223.869 567.474 167.603 547.53C110.524 527.298 8.16612 542.385 1.39831 482.205C-7.90417 399.487 104.093 354.116 137.266 277.772C148.159 252.703 129.759 225.018 124.834 198.132C114.556 142.014 63.9369 82.4619 92.4429 33.0435C116.781 -9.14859 186.315 -0.97771 234.024 8.83854C276.841 17.6482 295.437 79.3122 338.924 83.7578C406.45 90.6608 491.369 -13.1899 534.137 39.5186Z" fill="#FFBE2E"/>
</svg>
