<svg width="26" height="26" viewBox="0 0 26 26" fill="none" xmlns="http://www.w3.org/2000/svg">
<path d="M10.8754 20.4442C9.61762 20.4442 8.59436 21.4848 8.59436 22.7638C8.59436 24.0429 9.61762 25.0835 10.8754 25.0835C12.1331 25.0835 13.1564 24.0429 13.1564 22.7638C13.1563 21.4848 12.1331 20.4442 10.8754 20.4442ZM10.8754 23.7882C10.3199 23.7882 9.86796 23.3286 9.86796 22.7637C9.86796 22.1988 10.3199 21.7393 10.8754 21.7393C11.4308 21.7393 11.8828 22.1989 11.8828 22.7637C11.8828 23.3287 11.4308 23.7882 10.8754 23.7882Z" fill="black"/>
<path d="M18.8764 20.4442C17.6186 20.4442 16.5953 21.4848 16.5953 22.7638C16.5953 24.0429 17.6186 25.0835 18.8764 25.0835C20.1342 25.0835 21.1575 24.0429 21.1575 22.7638C21.1574 21.4848 20.1341 20.4442 18.8764 20.4442ZM18.8764 23.7882C18.3209 23.7882 17.869 23.3286 17.869 22.7637C17.869 22.1988 18.3209 21.7393 18.8764 21.7393C19.4319 21.7393 19.8838 22.1989 19.8838 22.7637C19.8838 23.3287 19.4319 23.7882 18.8764 23.7882Z" fill="black"/>
<path d="M19.438 8.2312H10.3122C9.96051 8.2312 9.67542 8.52113 9.67542 8.8788C9.67542 9.23647 9.96056 9.5264 10.3122 9.5264H19.438C19.7897 9.5264 20.0748 9.23647 20.0748 8.8788C20.0748 8.52108 19.7897 8.2312 19.438 8.2312Z" fill="black"/>
<path d="M18.9414 11.5941H10.8089C10.4572 11.5941 10.1721 11.884 10.1721 12.2417C10.1721 12.5994 10.4572 12.8893 10.8089 12.8893H18.9413C19.293 12.8893 19.5781 12.5994 19.5781 12.2417C19.5781 11.8841 19.293 11.5941 18.9414 11.5941Z" fill="black"/>
<path d="M25.6499 5.34574C25.407 5.04262 25.0472 4.86881 24.6626 4.86881H4.82655L4.42595 2.89117C4.34232 2.47864 4.06563 2.13225 3.68565 1.96446L0.890528 0.730663C0.567841 0.58812 0.192825 0.7387 0.0528584 1.06675C-0.0872597 1.3949 0.0608116 1.77633 0.383347 1.91866L3.17852 3.15251L6.2598 18.3631C6.38117 18.9621 6.90578 19.3969 7.50723 19.3969H22.7635C23.1152 19.3969 23.4003 19.1069 23.4003 18.7493C23.4003 18.3916 23.1152 18.1017 22.7635 18.1017H7.50728L7.13247 16.2514H22.8814C23.4828 16.2514 24.0075 15.8166 24.1288 15.2176L25.9101 6.42519C25.9876 6.04233 25.8928 5.6488 25.6499 5.34574ZM22.8814 14.9563H6.87012L5.08895 6.16396L24.6626 6.16401L22.8814 14.9563Z" fill="black"/>
</svg>
